<?xml version="1.0" encoding="utf-8"?>
<!-- Generator: Adobe Illustrator 19.0.0, SVG Export Plug-In . SVG Version: 6.00 Build 0)  -->
<svg version="1.1" id="Layer_1" xmlns="http://www.w3.org/2000/svg" xmlns:xlink="http://www.w3.org/1999/xlink" x="0px" y="0px"
	 viewBox="0 0 183 33" style="enable-background:new 0 0 183 33;" xml:space="preserve">
<style type="text/css">
	.st0{fill:#FFFFFF;}
	.st1{enable-background:new    ;}
	.st2{fill:#099D6E;}
</style>
<rect x="37.8" y="3.6" class="st0" width="114.3" height="27.8"/>
<g class="st1">
	<path class="st2" d="M41.4,28.8V6.6h3.2v8.7h5.6V6.6h3.2v22.1h-3.2v-9.2h-5.6v9.2L41.4,28.8L41.4,28.8z"/>
	<path class="st2" d="M65.4,24H60l-1,4.8h-3.4l4.8-22.1h4.7L70,28.8h-3.6L65.4,24z M64.6,19.8l-1.9-9.3l-1.9,9.3H64.6z"/>
	<path class="st2" d="M81.5,6.6h3.2v22.1h-3.2L75.3,14v14.8h-3.2V6.6h3.4l6,14.3C81.5,20.9,81.5,6.6,81.5,6.6z"/>
	<path class="st2" d="M96.5,24h-5.4l-1,4.8h-3.4l4.8-22.1h4.7l4.8,22.1h-3.6L96.5,24z M95.7,19.8l-1.9-9.3L92,19.8H95.7z"/>
	<path class="st2" d="M103.2,28.8V6.6h3.2v8.7h5.6V6.6h3.2v22.1H112v-9.2h-5.6v9.2L103.2,28.8L103.2,28.8z"/>
</g>
<g class="st1">
	<path class="st2" d="M132.2,12.8v-1.6c0-1.1-0.2-1.9-0.5-2.4C131.3,8.3,130.8,8,130,8h-3.8c-0.8,0-1.4,0.3-1.7,0.8
		c-0.4,0.5-0.5,1.3-0.5,2.4V13c0,0.9,0.1,1.5,0.4,2c0.3,0.4,0.8,0.8,1.5,1l4.7,1.6c1,0.4,1.8,0.9,2.3,1.5s0.7,1.6,0.7,2.9v2.2
		c0,3.1-1.1,4.6-3.3,4.6h-4.1c-2.2,0-3.3-1.5-3.3-4.6v-1.9h1.1v2c0,1.1,0.2,1.9,0.5,2.4c0.4,0.5,0.9,0.8,1.7,0.8h4
		c0.8,0,1.4-0.3,1.7-0.8c0.4-0.5,0.5-1.3,0.5-2.4V22c0-0.9-0.1-1.5-0.4-2c-0.3-0.4-0.8-0.8-1.5-1l-4.7-1.6c-1.1-0.4-1.8-0.9-2.3-1.5
		s-0.7-1.6-0.7-2.9v-1.7c0-3.1,1.1-4.6,3.3-4.6h3.9c2.2,0,3.3,1.5,3.3,4.6v1.5H132.2z"/>
	<path class="st2" d="M137.5,6.6h7.3c2.2,0,3.3,1.5,3.3,4.6v4c0,3.1-1.1,4.6-3.3,4.6h-6.2v9h-1.1V6.6z M138.5,18.4h6.2
		c1.5,0,2.3-1.1,2.3-3.2v-4.1c0-2.1-0.8-3.2-2.3-3.2h-6.2V18.4z"/>
</g>
<g>
	<polyline class="st2" points="146.6,24.1 144.2,28.6 148.9,28.6 	"/>
</g>
</svg>
