<?xml version="1.0" encoding="iso-8859-1"?><!DOCTYPE svg PUBLIC "-//W3C//DTD SVG 1.1//EN" "http://www.w3.org/Graphics/SVG/1.1/DTD/svg11.dtd"><svg xmlns="http://www.w3.org/2000/svg" width="16.3" height="20.3" baseProfile="tiny"><g fill="#099d6e"><path d="M8.2 4.5C6.3 4.5 4.8 6 4.8 7.9c0 1.8 1.5 3.3 3.3 3.3s3.3-1.5 3.3-3.3C11.5 6 10 4.5 8.2 4.5zm0 5.4c-1.1 0-2-.9-2-2s.9-2 2-2 2 .9 2 2-.9 2-2 2z"/><path d="M8.2 11.3c-1.9 0-3.5-1.6-3.5-3.5s1.6-3.5 3.5-3.5 3.5 1.6 3.5 3.5-1.6 3.5-3.5 3.5zm0-6.6C6.4 4.7 5 6.1 5 7.9c0 1.8 1.4 3.2 3.2 3.2s3.2-1.4 3.2-3.2c0-1.8-1.5-3.2-3.2-3.2zm0 5.3C7 10 6 9.1 6 7.9s1-2.1 2.1-2.1 2.1 1 2.1 2.1-.8 2.1-2 2.1zm0-4c-1 0-1.9.9-1.9 1.9s.9 1.9 1.9 1.9 1.9-.9 1.9-1.9S9.2 6 8.2 6z"/><path d="M16.2 8.2c0-4.4-3.6-8-8-8s-8 3.6-8 8C.1 15 7.5 19.8 7.8 20l.4.2.3-.2c.4-.3 7.7-5.3 7.7-11.8zm-8 10.4l-.2-.1c-1.5-1.1-6.6-5.2-6.6-10.3a6.7 6.7 0 0 1 13.4 0c0 4.9-5 9.1-6.6 10.3v.1z"/><path d="M8.2 20.3l-.4-.3C7.4 19.9 0 15 0 8.2 0 3.7 3.7 0 8.2 0s8.2 3.7 8.2 8.2c0 6.6-7.4 11.7-7.7 11.9l-.5.2zM8.2.2C3.8.2.3 3.8.3 8.1c0 6.7 7.3 11.5 7.6 11.7l.3.2.3-.2c.3-.2 7.6-5.2 7.6-11.7 0-4.3-3.6-7.9-7.9-7.9zm0 18.6l-.2-.2c-1.6-1.1-6.6-5.2-6.6-10.4 0-3.8 3.1-6.9 6.9-6.9S15 4.4 15 8.2c0 5-5.1 9.2-6.6 10.4l-.2.2zm0-17.2c-3.6 0-6.6 3-6.6 6.6 0 5.1 5 9.1 6.5 10.2l.1.1.1-.1c1.5-1.2 6.5-5.3 6.5-10.2 0-3.7-3-6.6-6.6-6.6z"/></g></svg>