<?xml version="1.0" encoding="iso-8859-1"?><!DOCTYPE svg PUBLIC "-//W3C//DTD SVG 1.1//EN" "http://www.w3.org/Graphics/SVG/1.1/DTD/svg11.dtd"><svg xmlns="http://www.w3.org/2000/svg" width="24.7" height="24.7" baseProfile="tiny"><g fill="#099d6e"><path d="M6.7 3.9l2.5 2.5-1.9 2.5c-.7.9-.6 2.1.2 2.9l5.6 5.6c.8.8 2 .9 2.9.2l2.6-1.9 1.2-.9-1.1-1.1-3.7 2.7c-.3.2-.7.2-1-.1l-5.6-5.6c-.3-.3-.3-.7-.1-1L11 6 5 0 3.9 1.1l1.1 1 1.7 1.8zm14.1 11.9l-1.2.9 3 3-2.4 2.4c-1.1 1.1-2.8 1.4-4.2.9-2.8-1.1-5.2-2.7-7.3-4.8L6.6 16c-2.1-2.1-3.7-4.6-4.8-7.3-.6-1.5-.3-3.1.8-4.2L4.1 3l-1-1.1-1.5 1.5C.1 4.9-.4 7.2.4 9.2c1.2 3 2.9 5.6 5.1 7.9l2.1 2.1c2.3 2.3 4.9 4 7.9 5.1 2 .8 4.3.3 5.8-1.2l3.4-3.4-3.9-3.9z"/></g></svg>