<?xml version="1.0" encoding="iso-8859-1"?><!DOCTYPE svg PUBLIC "-//W3C//DTD SVG 1.1//EN" "http://www.w3.org/Graphics/SVG/1.1/DTD/svg11.dtd"><svg xmlns="http://www.w3.org/2000/svg" baseProfile="tiny" viewBox="0 0 24.6 20.5" width="24.6" height="20.5"><g fill="#a8a8a8"><path d="M10.8 17.1c-.9 0-1.6.7-1.6 1.6s.7 1.6 1.6 1.6 1.6-.7 1.6-1.6-.7-1.6-1.6-1.6z"/><path d="M10.8 20.5c-1 0-1.8-.8-1.8-1.8s.8-1.8 1.8-1.8 1.8.8 1.8 1.8c.1 1-.8 1.8-1.8 1.8zm0-3.2c-.7 0-1.3.6-1.3 1.3s.6 1.3 1.3 1.3 1.3-.6 1.3-1.3-.5-1.3-1.3-1.3zm9.4-.2c-.9 0-1.6.7-1.6 1.6s.7 1.6 1.6 1.6 1.6-.7 1.6-1.6-.7-1.6-1.6-1.6z"/><path d="M20.2 20.5c-1 0-1.8-.8-1.8-1.8s.8-1.8 1.8-1.8 1.8.8 1.8 1.8c.1 1-.7 1.8-1.8 1.8zm0-3.2c-.7 0-1.3.6-1.3 1.3s.6 1.3 1.3 1.3 1.3-.6 1.3-1.3-.5-1.3-1.3-1.3zM5.9 2.5c-.4 0-.7.3-.7.7s.3.7.7.7h.6L6 2.5h-.1zm18.3.5c-.2-.2-.4-.3-.6-.4l-.3-.1h-16l.4 1.4h15.4l-1.8 4.9c-.2.7-.9 1.2-1.6 1.3l-9.7.8.4 1.4 9.4-.7c1.3-.1 2.4-1 2.8-2.2l1.8-4.9c.1-.2.1-.3.1-.5 0-.4-.1-.8-.3-1zM8.4 11c-.4 0-.7.4-.6.8 0 .4.3.6.7.6h.6L8.6 11h-.2z"/><path d="M8.5 12.5c-.4 0-.8-.3-.8-.8s.3-.9.8-.9h.3l.5 1.6-.8.1zm-.1-1.4c-.3 0-.6.3-.5.6 0 .3.3.5.6.5h.4l-.5-1.1zm1.8 1.2l-.5-1.6h.2l9.7-.8c.7-.1 1.3-.5 1.5-1.2L22.9 4H7.7l-.5-1.6h16.2l.3.1c.2.1.5.2.6.4.3.3.4.7.4 1.1 0 .2 0 .3-.1.5l-1.8 4.9c-.4 1.3-1.6 2.2-2.9 2.3l-9.7.6zm-.1-1.3l.3 1.1 9.3-.7c1.2-.1 2.3-.9 2.7-2.1l1.8-4.9c.1-.1.1-.3.1-.4 0-.3-.1-.6-.3-.9-.1-.1-.3-.3-.5-.3l-.3-.1H7.5l.4 1.2h15.4L21.4 9c-.3.8-1 1.3-1.7 1.4l-9.6.6zM6.6 4h-.7c-.5 0-.9-.3-.9-.8s.4-.8.8-.8H6L6.6 4zm-.7-1.4c-.3 0-.6.3-.6.6s.3.6.6.6h.4l-.4-1.2z"/><path d="M7.7 12.9l.3.9c.3.8.7 1.2 1.5 1.2h12.4v-1.4H9.4l-.3-.8L5.3.1H.1v1.4h4.1l3.5 11.4z"/><path d="M9.4 15.1c-.8 0-1.3-.4-1.6-1.3l-.2-.8L4.1 1.7H0V0h5.4v.1l4.1 13.3H22V15l-12.6.1zm-1.6-2.2l.3.9c.2.7.7 1.1 1.3 1.1h12.3v-1.1H9.3L9 12.7 5.2.2h-5v1.2h4.1v.1l3.5 11.4z"/></g></svg>