<?xml version="1.0" encoding="iso-8859-1"?><!DOCTYPE svg PUBLIC "-//W3C//DTD SVG 1.1//EN" "http://www.w3.org/Graphics/SVG/1.1/DTD/svg11.dtd"><svg xmlns="http://www.w3.org/2000/svg" width="20.2" height="21" baseProfile="tiny"><g fill="#a8a8a8"><path d="M17.9.1H2.3C1.1.1.1 1.1.1 2.3v10.5c0 1.2 1 2.2 2.2 2.2h4.4l7.2 5.8V15h4c1.2 0 2.2-1 2.2-2.2V2.3C20 1.1 19.1.1 17.9.1zm.8 12.7c0 .5-.4.9-.9.9h-5.3v4.4l-5.4-4.4H2.3c-.5 0-.9-.4-.9-.9V2.3c0-.5.4-.9.9-.9h15.6c.5 0 .9.4.9.9v10.5z"/><path d="M14 21l-7.4-5.9H2.3C1 15.1 0 14 0 12.8V2.3C0 1 1 0 2.3 0h15.6c1.3 0 2.3 1 2.3 2.3v10.5c0 1.3-1 2.3-2.3 2.3H14V21zM2.3.2C1.2.2.2 1.1.2 2.3v10.5c0 1.1.9 2.1 2.1 2.1h4.4l7 5.6v-5.7h4.1c1.1 0 2.1-.9 2.1-2.1V2.3c0-1.1-.9-2.1-2.1-2.1H2.3zm10.4 18.1l-5.6-4.5H2.3c-.5 0-1-.4-1-1V2.3c0-.5.4-1 1-1h15.6c.5 0 1 .4 1 1v10.5c0 .5-.4 1-1 1h-5.1l-.1 4.5zM2.3 1.6c-.4 0-.7.3-.7.7v10.5c0 .4.3.7.7.7h4.9l5.2 4.2v-4.2h5.4c.4 0 .7-.3.7-.7V2.3c0-.4-.3-.7-.7-.7H2.3z"/></g></svg>